<?xml version="1.0"?>
<svg xmlns="http://www.w3.org/2000/svg" id="Capa_1" enable-background="new 0 0 512 512" height="512px" viewBox="0 0 512 512" width="512px"><g><g><path d="m377 0h-242c-74.439 0-135 60.561-135 135v242c0 74.439 60.561 135 135 135h242c74.439 0 135-60.561 135-135v-242c0-74.439-60.561-135-135-135zm105 377c0 57.897-47.103 105-105 105h-242c-57.897 0-105-47.103-105-105v-242c0-57.897 47.103-105 105-105h242c57.897 0 105 47.103 105 105z" data-original="#CC2B2B" class="active-path" data-old_color="#CC2B2B" fill="#CC2B2B"/></g></g> </svg>
